<svg xmlns="http://www.w3.org/2000/svg" viewBox="0 0 176.34937 217.90541"><g id="Layer_2" data-name="Layer 2"><g id="Layer_1-2" data-name="Layer 1"><path d="M102.58449,89.32805q.43468.46237.87031.92611a4.94305,4.94305,0,0,0,2.38558,1.05817q.63585.012,1.2729.02429a4.94,4.94,0,0,0,2.32459-.89154c.24182-.14408.49313-.2685.73014-.42007a6.93348,6.93348,0,0,0,1.42862-1.34321,5.8392,5.8392,0,0,0,.495-.692c.3916-.61009.76366-1.23161,1.1329-1.85384a34.898,34.898,0,0,0,1.77666-3.53771,39.58511,39.58511,0,0,0,2.08183-6.25774c.091-.35.18372-.6987.25879-1.053.09422-.44167.21645-.88714.27993-1.335.06537-.46426.13681-.9279.18956-1.39384.128-.62843.24442-1.25727.35617-1.89035.06119-.34818.09829-.70108.14494-1.05184.03569-.26979.07546-.5388.10775-.80836a6.29336,6.29336,0,0,0-.28256-2.88423,4.43334,4.43334,0,0,0-.50432-1.06266q-.09249-1.49433-.19944-2.98865a4.83825,4.83825,0,0,0-1.76439-3.246,4.922,4.922,0,0,0-6.91272.67847,4.7256,4.7256,0,0,0-.67045,1.08251,5.30684,5.30684,0,0,0-.41444,2.56674q.0884,1.20008.16241,2.40115c-.36817.57585-.719,1.16089-1.05813,1.75407a28.34343,28.34343,0,0,0-1.67748,3.59257c-.56147,1.40757-1.00617,2.84181-1.43792,4.291-.36,1.20649-.72758,2.40916-1.03316,3.62986-.23055.92115-.45783,1.83962-.66013,2.767-.11611.535-.23326,1.06978-.34124,1.60628a17.03754,17.03754,0,0,0-.27771,1.69864,6.61993,6.61993,0,0,0,.32482,2.98258A8.353,8.353,0,0,0,102.58449,89.32805Z" style="fill:#5e5e5e"/><path d="M141.55878,81.32291q.43468.46237.87031.9261a4.94283,4.94283,0,0,0,2.38558,1.05817q.63585.012,1.2729.0243a4.94,4.94,0,0,0,2.32459-.89154c.24182-.14409.49313-.26851.73014-.42007a6.934,6.934,0,0,0,1.42862-1.34321,5.84083,5.84083,0,0,0,.495-.692c.3916-.6101.76366-1.23162,1.1329-1.85385a34.89885,34.89885,0,0,0,1.77666-3.5377,39.58511,39.58511,0,0,0,2.08183-6.25774c.091-.35.18372-.69871.25879-1.053.09422-.44168.21645-.88715.27993-1.335.06537-.46427.13681-.92791.18956-1.39385.128-.62843.24442-1.25727.35617-1.89035.06119-.34818.09829-.70108.14494-1.05183.03569-.2698.07546-.53881.10775-.80837a6.29331,6.29331,0,0,0-.28256-2.88422,4.43316,4.43316,0,0,0-.50432-1.06266q-.09249-1.49435-.19944-2.98866a4.83821,4.83821,0,0,0-1.76439-3.246,4.922,4.922,0,0,0-6.91272.67846,4.72566,4.72566,0,0,0-.67045,1.08252,5.30682,5.30682,0,0,0-.41444,2.56674q.0884,1.20007.16241,2.40114c-.36817.57586-.719,1.1609-1.05813,1.75407a28.34421,28.34421,0,0,0-1.67748,3.59258c-.56148,1.40757-1.00617,2.84181-1.43792,4.291-.36,1.20649-.72758,2.40916-1.03316,3.62986-.23055.92116-.45783,1.83962-.66013,2.767-.11611.535-.23326,1.06978-.34124,1.60628a17.04047,17.04047,0,0,0-.27772,1.69864,6.62,6.62,0,0,0,.32483,2.98257A8.35338,8.35338,0,0,0,141.55878,81.32291Z" style="fill:#5e5e5e"/><path d="M67.5887,103.24178q.2985.55152.59663,1.10259a4.88617,4.88617,0,0,0,1.992,1.6153c.07929.02323.15848.04656.23833.06977a4.90614,4.90614,0,0,0,9.15888.52382q.4941-1.0431.95248-2.098a4.944,4.944,0,0,0,.81629-1.98252c.405-1.0407.77855-2.09472,1.11319-3.16441.49527-1.58345.9062-3.17566,1.31327-4.78186a48.98146,48.98146,0,0,0,.90923-5.03209,20.4074,20.4074,0,0,0,.183-2.20816l.01544-.05733a17.79853,17.79853,0,0,0,.48567-2.08611,3.072,3.072,0,0,0,.029-.31364,5.371,5.371,0,0,0-.281-2.57938,5.01632,5.01632,0,0,0-2.70286-2.908A5.87305,5.87305,0,0,0,79.507,78.885a4.15685,4.15685,0,0,0-1.39222.35083,5.95964,5.95964,0,0,0-1.361.77656,8.38252,8.38252,0,0,0-1.30617,1.31509c-.12561.16986-.25229.33929-.378.50912a10.19931,10.19931,0,0,0-.84755.86787,14.21534,14.21534,0,0,0-1.14841,1.54392,37.828,37.828,0,0,0-2.51221,4.41435c-.15971.33461-.31779.67324-.46961,1.014-.29271.6567-.56507,1.32487-.79336,2.00175-.42824,1.26839-.84365,2.53013-1.21323,3.81751-.25895.90212-.50093,1.80271-.727,2.71279-.08262.33463-.13137.68127-.197,1.01966a5.082,5.082,0,0,0-.12065.79,5.78548,5.78548,0,0,0,.30656,2.7102C67.414,102.90721,67.50761,103.06969,67.5887,103.24178Z" style="fill:#5e5e5e"/><path d="M70.29812,141.88433c.51085-1.44057,1.03733-2.90937,1.4264-4.38655a9.62588,9.62588,0,0,0,.545-2.72487,7.59319,7.59319,0,0,0-.12259-1.69252,6.59158,6.59158,0,0,0-1.40235-2.92581,5.3425,5.3425,0,0,0-.45641-.50838,6.3038,6.3038,0,0,0-3.802-2.08189c-.09175.12711-.18755.25181-.28995.37134a21.89876,21.89876,0,0,1-1.76455,1.92957,20.04165,20.04165,0,0,1-2.98255,2.141,20.86446,20.86446,0,0,1-4.14274,1.97518c-.89189.31561-1.80091.62617-2.71971.90621-.34867.50716-.68682,1.02208-1.0041,1.54774-.27889.46133-.58327.91381-.83039,1.39329-.08167.15714-.16186.31405-.24351.47119-.11384.25895-.23072.51762-.343.7779.0256.13253.04933.26572.07022.39811.18868,1.20851.38124,2.41606.56981,3.62461.18563,1.18641.27868,2.39476.41755,3.58723.28228,2.42977.48071,4.87619.63612,7.31755q-.03414-.54907-.069-1.09737c.126,1.81183.24425,3.62418.36659,5.43644.01731.25652.033.51262.04863.76868.32755.68229.65859,1.36274.98584,2.04547.60249,1.25556,1.17687,2.53929,1.80748,3.79q1.04661-.68171,2.11267-1.33038a7.33819,7.33819,0,0,1,1.23022-.67786c.47385-.17237.90648-.3322,1.33416-.458.79665-1.52114,1.5358-3.07328,2.24752-4.63366q.798-1.74708,1.5956-3.49305c.48357-1.05992.88471-2.16477,1.32542-3.24279.8026-1.9638,1.58048-3.94191,2.28853-5.94083Q69.71614,143.52731,70.29812,141.88433Z" style="fill:#5e5e5e"/><path d="M149.83273,114.61c.51085-1.44057,1.03733-2.90937,1.4264-4.38656a9.62588,9.62588,0,0,0,.545-2.72487,7.59306,7.59306,0,0,0-.12259-1.69251,6.5915,6.5915,0,0,0-1.40236-2.92581,5.34114,5.34114,0,0,0-.4564-.50839,6.30385,6.30385,0,0,0-3.802-2.08189c-.09176.12712-.18755.25181-.29.37135a21.89722,21.89722,0,0,1-1.76455,1.92956,20.04165,20.04165,0,0,1-2.98255,2.141,20.86335,20.86335,0,0,1-4.14274,1.97518c-.89189.31562-1.80091.62617-2.71971.90621-.34867.50716-.68682,1.02209-1.0041,1.54774-.27889.46134-.58327.91381-.83039,1.39329-.08167.15715-.16186.31406-.24351.4712-.11385.25894-.23072.51761-.343.7779.0256.13252.04933.26571.07022.3981.18868,1.20852.38124,2.41607.56981,3.62461.18563,1.18641.27868,2.39477.41755,3.58724.28228,2.42977.48071,4.87619.63612,7.31754q-.03414-.54908-.069-1.09736c.126,1.81182.24425,3.62417.36659,5.43643.01731.25653.033.51262.04863.76869.32755.68229.65859,1.36273.98584,2.04546.60249,1.25556,1.17687,2.53929,1.80748,3.79q1.04661-.68172,2.11267-1.33038a7.339,7.339,0,0,1,1.23022-.67787c.47385-.17236.90648-.3322,1.33416-.458.79665-1.52114,1.5358-3.07328,2.24752-4.63366q.798-1.74708,1.5956-3.49306c.48357-1.05992.88471-2.16476,1.32542-3.24278.8026-1.96381,1.58048-3.94191,2.28853-5.94084Q149.25075,116.253,149.83273,114.61Z" style="fill:#5e5e5e"/><path d="M137.56292,14.83c.51085-1.44056,1.03733-2.90937,1.4264-4.38655a9.62553,9.62553,0,0,0,.545-2.72487,7.59306,7.59306,0,0,0-.12259-1.69251,6.59157,6.59157,0,0,0-1.40235-2.92582,5.34375,5.34375,0,0,0-.4564-.50838A6.30391,6.30391,0,0,0,133.75091.51c-.09175.12711-.18755.25181-.29.37135a21.89852,21.89852,0,0,1-1.76454,1.92956,20.04122,20.04122,0,0,1-2.98256,2.141A20.86309,20.86309,0,0,1,124.57112,6.927c-.89189.31562-1.80091.62617-2.71971.90621-.34867.50716-.68682,1.02208-1.0041,1.54774-.27889.46134-.58326.91381-.83039,1.39329-.08167.15714-.16186.314-.24351.47119-.11384.259-.23071.51762-.343.7779.0256.13253.04933.26572.07022.39811.18868,1.20852.38124,2.41607.56981,3.62461.18563,1.18641.27868,2.39477.41755,3.58724.28228,2.42977.48071,4.87619.63613,7.31754q-.03414-.54907-.069-1.09736c.126,1.81182.24425,3.62417.36659,5.43643.01731.25653.033.51262.04863.76869.32756.68229.65859,1.36273.98584,2.04546.6025,1.25556,1.17688,2.53929,1.80749,3.79q1.04659-.68172,2.11266-1.33038a7.33831,7.33831,0,0,1,1.23022-.67787c.47385-.17236.90648-.3322,1.33416-.45795.79665-1.52115,1.5358-3.07328,2.24752-4.63367q.798-1.74708,1.59561-3.493c.48357-1.05992.88471-2.16477,1.32541-3.24279.8026-1.9638,1.58048-3.94191,2.28854-5.94083Q136.98093,16.473,137.56292,14.83Z" style="fill:#5e5e5e"/><path d="M108.55965,130.06452a6.09088,6.09088,0,0,0-2.09159-2.41943,7.10749,7.10749,0,0,0-1.66142-.83324,6.85079,6.85079,0,0,0-6.5255,1.21925,3.07145,3.07145,0,0,0-.51019.468c-.30359.33137-.60875.66223-.90772.99779-.06639.02909-.13278.059-.19815.0903q-.66544.43128-1.33146.86411a6.14435,6.14435,0,0,0-1.82489,2.68985c-.28258,1.15857-.56847,2.31732-.82049,3.48338q-.11232.23157-.22388.46371a13.77726,13.77726,0,0,0-1.5893,5.50929,6.26761,6.26761,0,0,0,1.453,4.37138,6.15132,6.15132,0,0,0,2.05364,1.55881c.103.07505.20609.144.30989.20587a6.68448,6.68448,0,0,0,3.12221,1.09377,6.83983,6.83983,0,0,0,1.79719-.09743,7.66416,7.66416,0,0,0,3.32243-1.58214,8.66748,8.66748,0,0,0,1.764-1.93656c.05387-.07494.1065-.15.15795-.22611a22.91835,22.91835,0,0,0,1.56276-2.93491c.35779-.74032.6624-1.5.94918-2.26984.40373-1.085.74277-2.19415,1.08186-3.30066.11558-.37618.19623-.76629.29485-1.14876a11.89262,11.89262,0,0,0,.498-2.888A6.754,6.754,0,0,0,108.55965,130.06452Z" style="fill:#5e5e5e"/><path d="M175.667,185.43966a6.091,6.091,0,0,0-2.09159-2.41943,7.10681,7.10681,0,0,0-1.66141-.83323,6.85075,6.85075,0,0,0-6.52551,1.21925,3.07091,3.07091,0,0,0-.51018.468c-.30359.33137-.60875.66223-.90772.99779-.06639.02908-.13278.059-.19815.09029q-.66546.43128-1.33146.86412a6.14418,6.14418,0,0,0-1.82489,2.68984c-.28258,1.15857-.56847,2.31733-.82049,3.48338q-.11232.23157-.22389.46371a13.77747,13.77747,0,0,0-1.5893,5.50929,6.26764,6.26764,0,0,0,1.453,4.37138,6.15152,6.15152,0,0,0,2.05365,1.55882c.103.075.20608.144.30989.20587a6.68444,6.68444,0,0,0,3.12221,1.09377,6.84026,6.84026,0,0,0,1.79719-.09743,7.6644,7.6644,0,0,0,3.32243-1.58215,8.667,8.667,0,0,0,1.764-1.93656c.05388-.07493.10651-.15.158-.22611a22.91827,22.91827,0,0,0,1.56276-2.93491c.35779-.74031.66239-1.5.94918-2.26984.40372-1.085.74277-2.19415,1.08186-3.30066.11558-.37618.19623-.76629.29484-1.14876a11.8915,11.8915,0,0,0,.498-2.888A6.75375,6.75375,0,0,0,175.667,185.43966Z" style="fill:#5e5e5e"/><path d="M86.59977,187.41865a6.13749,6.13749,0,0,0-8.63642-.67858q-.5477.61163-1.09442,1.22256-.1197.17751-.22594.36a6.35761,6.35761,0,0,0-.83688.59891,57.01181,57.01181,0,0,0-3.968,4.653c-.51941.71883-.97794,1.46751-1.44062,2.22165a37.22348,37.22348,0,0,0-2.23177,4.33559,7.31062,7.31062,0,0,0-.59158,4.54233,6.4057,6.4057,0,0,0,2.87261,4.15142,6.59119,6.59119,0,0,0,3.1404,1.06215,6.86307,6.86307,0,0,0,3.25753-.63006,10.0158,10.0158,0,0,0,2.54524-1.85318c.61067-.5885,1.15178-1.24932,1.70947-1.88853.29358-.33643.5772-.683.8521-1.03546q.46552-.59975.88884-1.22717c.84247-1.24152,1.58009-2.54869,2.3188-3.8557.25816-.45677.48962-.93032.73432-1.39458.48692-.92329.965-1.85516,1.38058-2.81281a9.044,9.044,0,0,0,.36693-.99779,7.10322,7.10322,0,0,0,.4122-2.40127q-.04819-.77962-.09783-1.56A6.0996,6.0996,0,0,0,86.59977,187.41865Z" style="fill:#5e5e5e"/><path d="M170.08031,4.95237a6.12461,6.12461,0,0,0-7.17291-4.843q-.74316.2439-1.48746.48845a6.0825,6.0825,0,0,0-2.42515,2.08656c-.98542,1.14531-1.98674,2.28129-2.93408,3.45893a40.1395,40.1395,0,0,0-3.63142,5.627c-1.33874,2.38452-2.55963,4.83165-3.75086,7.29269-.0936.19268-.18575.386-.27811.57964a7.069,7.069,0,0,0-.49121,1.43646,6.11211,6.11211,0,0,0,1.14458,5.92515,6.23182,6.23182,0,0,0,5.81831,2.03105,6.97694,6.97694,0,0,0,3.34745-1.53024,1.9746,1.9746,0,0,0,.34953-.33524c.44943-.49311.899-.96295,1.30406-1.48439.50287-.64933,1.01395-1.29153,1.50216-1.95132.43286-.58454.852-1.17884,1.272-1.77318.69656-.98382,1.38116-1.976,2.06329-2.97129q.541-.78934,1.0779-1.58192,1.01034-1.48894,2.0107-2.98275c.38374-.54169.75951-1.08949,1.10447-1.6539q.366-.73256.73127-1.46666a6.08418,6.08418,0,0,0,.21094-3.11335l-.01088-.055c.01131-.02356.0232-.04684.035-.0701A6.09253,6.09253,0,0,0,170.08031,4.95237Z" style="fill:#5e5e5e"/><path d="M136.70409,162.24968a6.12461,6.12461,0,0,0-7.17292-4.843q-.74316.2439-1.48746.48844a6.08263,6.08263,0,0,0-2.42514,2.08656c-.98543,1.14531-1.98675,2.28129-2.93409,3.45893a40.1395,40.1395,0,0,0-3.63142,5.627c-1.33874,2.38452-2.55963,4.83165-3.75086,7.2927-.0936.19267-.18575.386-.27811.57963a7.0689,7.0689,0,0,0-.49121,1.43647,6.11213,6.11213,0,0,0,1.14458,5.92515,6.23181,6.23181,0,0,0,5.81831,2.031,6.97694,6.97694,0,0,0,3.34745-1.53024,1.97419,1.97419,0,0,0,.34953-.33523c.44943-.49312.899-.96295,1.30406-1.48439.50287-.64934,1.014-1.29154,1.50216-1.95133.43286-.58453.852-1.17883,1.272-1.77318.69656-.98381,1.38116-1.976,2.0633-2.97129q.541-.78934,1.07789-1.58191,1.01036-1.489,2.01071-2.98276c.38373-.54168.7595-1.08949,1.10446-1.6539q.366-.73255.73127-1.46666a6.08418,6.08418,0,0,0,.21094-3.11335l-.01087-.055c.01131-.02355.02319-.04683.035-.07009A6.09266,6.09266,0,0,0,136.70409,162.24968Z" style="fill:#5e5e5e"/><path d="M146.20524,202.02232c.03867-.48984.07311-.9802.10932-1.46931.04035-.55084.084-1.10153.11581-1.65242q.029-.51384.059-1.02637a20.18779,20.18779,0,0,0-.1151-3.26531,8.1983,8.1983,0,0,0-.57216-1.78808,5.86872,5.86872,0,0,0-1.09544-1.59844q-.61278-.54535-1.22648-1.09124a6.09684,6.09684,0,0,0-3.02837-1.037,6.24517,6.24517,0,0,0-1.54914.09489c-.7337.96671-1.468,1.93419-2.179,2.917q-1.99779,2.75953-3.965,5.5402-.47052.6711-.93544,1.34776-.16222.65871-.306,1.31993-.23729,1.312-.40529,2.63336c-.1205.95411-.25664,1.92-.30348,2.88116q-.05944,1.223-.12,2.4454c-.04864.99549-.13993,1.99856-.13312,2.9967q.00752,1.05993.01493,2.12156.08158.18236.1774.35707c.3053.549.68315,1.05638,1.02884,1.582a8.15828,8.15828,0,0,0,1.41643,1.32633,6.41721,6.41721,0,0,0,3.50481,1.23292,7.35327,7.35327,0,0,0,1.84366-.13167,6.98919,6.98919,0,0,0,3.0645-1.44715,5.48567,5.48567,0,0,0,1.36025-1.43177,19.51253,19.51253,0,0,0,1.36251-2.59214,11.60217,11.60217,0,0,0,.70614-2.33009q.17329-.72886.31169-1.45954c.05676-.07606.11142-.153.16483-.23145a6.19081,6.19081,0,0,0,.94279-4.58086C146.35909,203.13272,146.27805,202.57766,146.20524,202.02232Z" style="fill:#5e5e5e"/><path d="M21.30123,131.773q.43468.46237.87031.9261a4.94305,4.94305,0,0,0,2.38558,1.05817q.63585.012,1.2729.0243a4.94011,4.94011,0,0,0,2.32459-.89154c.24182-.14409.49313-.26851.73014-.42008a6.9337,6.9337,0,0,0,1.42862-1.3432,5.84083,5.84083,0,0,0,.495-.692c.3916-.6101.76366-1.23162,1.1329-1.85385a34.898,34.898,0,0,0,1.77666-3.53771,39.58443,39.58443,0,0,0,2.08183-6.25774c.091-.35.18372-.6987.25879-1.053.09422-.44167.21645-.88714.27993-1.335.06537-.46426.13681-.9279.18956-1.39384.128-.62843.24442-1.25727.35617-1.89035.06119-.34818.09829-.70108.14494-1.05184.03569-.26979.07546-.5388.10775-.80836a6.29331,6.29331,0,0,0-.28256-2.88422,4.43316,4.43316,0,0,0-.50432-1.06266q-.09249-1.49435-.19944-2.98866a4.83821,4.83821,0,0,0-1.76439-3.246,4.92194,4.92194,0,0,0-6.91272.67846,4.7256,4.7256,0,0,0-.67045,1.08251,5.30684,5.30684,0,0,0-.41444,2.56674q.08839,1.20009.16241,2.40115c-.36817.57585-.719,1.1609-1.05813,1.75407a28.34356,28.34356,0,0,0-1.67748,3.59258c-.56147,1.40757-1.00617,2.8418-1.43792,4.291-.36,1.20649-.72758,2.40916-1.03316,3.62986-.23055.92116-.45783,1.83962-.66013,2.767-.11611.535-.23326,1.06977-.34124,1.60627a17.03754,17.03754,0,0,0-.27771,1.69864,6.61992,6.61992,0,0,0,.32482,2.98258A8.35338,8.35338,0,0,0,21.30123,131.773Z" style="fill:#5e5e5e"/><path d="M47.78056,187.344a6.13752,6.13752,0,0,0-8.63642-.67858q-.54769.61162-1.09442,1.22256-.1197.17751-.22594.36a6.35788,6.35788,0,0,0-.83688.59891,57.01181,57.01181,0,0,0-3.968,4.65305c-.51942.71884-.97794,1.46751-1.44062,2.22165a37.2251,37.2251,0,0,0-2.23178,4.33559,7.31061,7.31061,0,0,0-.59157,4.54233,6.40566,6.40566,0,0,0,2.87261,4.15142,6.59119,6.59119,0,0,0,3.1404,1.06215,6.863,6.863,0,0,0,3.25752-.63006,10.016,10.016,0,0,0,2.54525-1.85318c.61066-.58849,1.15178-1.24932,1.70947-1.88852.29357-.33644.57719-.683.85209-1.03547q.46554-.59975.88884-1.22717c.84247-1.24152,1.58009-2.54869,2.3188-3.85569.25817-.45678.48962-.93032.73433-1.39459.48691-.92329.965-1.85516,1.38058-2.81281a9.046,9.046,0,0,0,.36693-.99779,7.10341,7.10341,0,0,0,.4122-2.40126q-.04821-.77964-.09783-1.56A6.09979,6.09979,0,0,0,47.78056,187.344Z" style="fill:#5e5e5e"/><path d="M22.49269,163.00152a6.12462,6.12462,0,0,0-7.17292-4.843q-.74315.2439-1.48746.48844a6.08264,6.08264,0,0,0-2.42514,2.08657c-.98542,1.14531-1.98675,2.28129-2.93408,3.45893a40.13867,40.13867,0,0,0-3.63143,5.627C3.50293,172.204,2.282,174.65109,1.0908,177.11213c-.0936.19268-.18575.386-.2781.57963a7.06931,7.06931,0,0,0-.49121,1.43647,6.112,6.112,0,0,0,1.14458,5.92515,6.23183,6.23183,0,0,0,5.8183,2.031,8.08609,8.08609,0,0,0,1.76208-.53385,8.15844,8.15844,0,0,0,1.58538-.99639,1.97454,1.97454,0,0,0,.34952-.33524c.44943-.49311.899-.963,1.30407-1.48439.50286-.64933,1.01395-1.29153,1.50216-1.95132.43285-.58454.852-1.17884,1.272-1.77318.69656-.98382,1.38116-1.976,2.06329-2.97129q.541-.78934,1.07789-1.58192,1.01036-1.48894,2.01071-2.98275c.38374-.54169.75951-1.08949,1.10446-1.6539q.366-.73255.73128-1.46666a6.08429,6.08429,0,0,0,.21093-3.11335l-.01087-.055c.01131-.02356.0232-.04684.035-.0701A6.09253,6.09253,0,0,0,22.49269,163.00152Z" style="fill:#5e5e5e"/></g></g></svg>