<svg xmlns="http://www.w3.org/2000/svg" viewBox="0 0 1438.67938 372.08539"><g id="Layer_2" data-name="Layer 2"><g id="Layer_1-2" data-name="Layer 1"><path d="M1345.226,0c1.057,6.872,1.655,13.81924,2.12549,20.75574q-.05877-.94538-.11871-1.88947a37.60111,37.60111,0,0,0,5.52441,20.73133c2.54738-1.60375,5.11271-3.5155,8.05286-4.24628A269.90309,269.90309,0,0,0,1375.61523,0Z" style="fill:#1a1b1c"/><path d="M1411.16187,0c-1.18762,7.12417,5.27634,12.75234,11.86989,13.56225,8.09807.75228,13.12528-6.87431,15.64762-13.56225Z" style="fill:#1a1b1c"/><path d="M1403.72347,78.28643c-5.57554-6.61569-14.113-3.258-18.58365,2.58876-6.46019,7.46822-15.09136,16.58549-14.17534,27.12113,5.32968,15.49152,20.03163,8.5165,26.28534-2.44657C1401.66012,97.67067,1410.55544,87.0995,1403.72347,78.28643Z" style="fill:#1a1b1c"/><path d="M991.25983,0c-2.68864,9.557-11.19031,29.97272,5.18046,30.6355C1008.8212,27.18347,1011.87759,10.948,1014.629,0Z" style="fill:#1a1b1c"/><path d="M1054.627,0c-2.67378,7.0092-.20883,17.579,8.919,16.85165C1071.65236,15.49486,1074.87419,6.63942,1077.8689,0Z" style="fill:#1a1b1c"/><path d="M1214.25934,2.12653c-.04389-.70887-.09546-1.41761-.14191-2.12653h-16.93127c.86473,4.52811-3.45559,7.87045-4.50819,12.1834-2.72378,9.32984-7.708,19.41639-5.89955,29.22745,2.76191,8.54682,13.9522,7.63488,17.93941.53728C1210.61638,32.76508,1218.54328,12.534,1214.25934,2.12653Z" style="fill:#1a1b1c"/><path d="M928.38733,51.13293a8.29029,8.29029,0,0,0,4.86732,4.79976,8.50643,8.50643,0,0,0,11.07918,5.34623c10.49562-6.45514,12.45819-30.3867,14.70767-41.848,1.30961-10.54569-12.78672-13.938-17.77362-5.15243C934.35079,21.56773,924.99473,41.33975,928.38733,51.13293Z" style="fill:#1a1b1c"/><path d="M1222.28482,80.54261a8.29024,8.29024,0,0,0,4.86732,4.79976,8.50644,8.50644,0,0,0,11.07919,5.34624c10.49562-6.45515,12.45818-30.38671,14.70767-41.848,1.3096-10.54569-12.78673-13.938-17.77363-5.15243C1228.24828,50.97742,1218.89222,70.74944,1222.28482,80.54261Z" style="fill:#1a1b1c"/><path d="M933.05235,117.667c4.13313-9.22166,6.09221-21.86373-6.56345-24.656-4.89669,6.69226-12.70671,10.3355-20.48836,12.6091-3.65387,4.27314-4.74975,8.76363-3.06516,14.14094.8112,6.23094,1.41385,12.50192,1.81294,18.77546q-.05879-.94539-.11876-1.88942a37.60182,37.60182,0,0,0,5.52441,20.7313c2.54735-1.60374,5.11269-3.51552,8.05287-4.24626A270.43349,270.43349,0,0,0,933.05235,117.667Z" style="fill:#1a1b1c"/><path d="M1069.99371,70.70655c4.13312-9.22165,6.0922-21.86372-6.56345-24.656-4.8967,6.69225-12.70671,10.33549-20.48837,12.6091-3.65386,4.27313-4.74975,8.76362-3.06516,14.14093.8112,6.23094,1.41385,12.50193,1.81294,18.77546q-.05878-.94537-.11876-1.88942a37.6018,37.6018,0,0,0,5.52442,20.73131c2.54734-1.60374,5.11269-3.51552,8.05286-4.24627A270.43377,270.43377,0,0,0,1069.99371,70.70655Z" style="fill:#1a1b1c"/><path d="M998.93041,97.31588c-6.69792-12.22238-21.247-3.96123-25.91474,5.29728-1.14,7.82451-8.22852,16.44887-2.0325,23.8084,8.6045,9.29391,20.48829,4.2301,24.25954-6.748C997.84005,112.79189,1002.13027,104.60157,998.93041,97.31588Z" style="fill:#1a1b1c"/><path d="M1153.69265,18.03791c-6.69793-12.22237-21.247-3.96122-25.91475,5.29728-1.14,7.82451-8.22852,16.44888-2.03249,23.8084,8.6045,9.29392,20.48829,4.23011,24.25953-6.748C1152.60229,33.51393,1156.8925,25.3236,1153.69265,18.03791Z" style="fill:#1a1b1c"/><path d="M1114.47468,192.65987c-6.69792-12.22238-21.247-3.96122-25.91474,5.29728-1.14,7.82451-8.22853,16.44887-2.0325,23.8084,8.6045,9.29391,20.48829,4.23011,24.25954-6.748C1113.38432,208.13588,1117.67453,199.94556,1114.47468,192.65987Z" style="fill:#1a1b1c"/><path d="M1301.65736,111.12231c-6.69793-12.22237-21.247-3.96122-25.91475,5.29728-1.14,7.82451-8.22852,16.44888-2.03249,23.8084,8.6045,9.29392,20.48829,4.23011,24.25954-6.748C1300.567,126.59833,1304.85721,118.408,1301.65736,111.12231Z" style="fill:#1a1b1c"/><path d="M961.12027,196.06725c-5.57555-6.61568-14.11306-3.25795-18.58366,2.58876-6.46018,7.46823-15.09136,16.58549-14.17533,27.12114,5.32967,15.49151,20.03163,8.51649,26.28533-2.44658C959.05692,215.45149,967.95224,204.88032,961.12027,196.06725Z" style="fill:#1a1b1c"/><path d="M1264.88342,0c4.3153,7.93949,15.48,6.802,20.33753,0Z" style="fill:#1a1b1c"/><path d="M1273.36539,195.92543c-1.13815-6.662-8.89166-10.45116-14.91135-7.49731-6.70751,4.68743-11.35343,12.25283-15.48039,19.23578-3.07857,6.81493-9.00558,13.55567-8.14495,21.387,1.22123,6.9205,9.15647,10.432,15.38521,7.42066,6.31637-3.53883,9.57663-10.794,13.90625-16.37658C1269.4794,212.81972,1274.8822,205.35017,1273.36539,195.92543Z" style="fill:#1a1b1c"/><path d="M1168.63919,68.7721c-1.13815-6.662-8.89166-10.45116-14.91135-7.49731-6.70751,4.68743-11.35343,12.25283-15.48039,19.23579-3.07857,6.81492-9.00558,13.55566-8.145,21.387,1.22123,6.92051,9.15647,10.432,15.38521,7.42067,6.31637-3.53884,9.57663-10.794,13.90625-16.37659C1164.7532,85.66639,1170.156,78.19684,1168.63919,68.7721Z" style="fill:#1a1b1c"/><path d="M1209.85419,194.54807c-1.13815-6.662-8.89166-10.45116-14.91135-7.49732-6.70751,4.68743-11.35343,12.25284-15.48039,19.23579-3.07858,6.81493-9.00558,13.55566-8.145,21.38695,1.22124,6.92051,9.15647,10.432,15.38522,7.42067,6.31637-3.53884,9.57663-10.794,13.90625-16.37659C1205.96819,211.44235,1211.371,203.97281,1209.85419,194.54807Z" style="fill:#1a1b1c"/><path d="M1047.389,152.73174c-1.13814-6.662-8.89165-10.45116-14.91134-7.49732-6.70752,4.68743-11.35343,12.25284-15.4804,19.23579-3.07857,6.81493-9.00558,13.55566-8.14495,21.38695,1.22123,6.92051,9.15647,10.432,15.38521,7.42067,6.31638-3.53884,9.57664-10.794,13.90625-16.37659C1043.503,169.626,1048.90584,162.15648,1047.389,152.73174Z" style="fill:#1a1b1c"/><path d="M1063.748,221.21161c1.58625-9.59764.63975-23.785-12.57338-22.09606-4.90366,7.613-13.002,14.15942-13.41427,23.68846-.06652,6.9119-3.18188,15.399,1.14339,21.32285,4.805,6.3276,14.94455,5.6003,19.26738-.7774a27.99726,27.99726,0,0,0,4.09826-10.98787C1064.8688,229.13286,1064.47779,225.0146,1063.748,221.21161Z" style="fill:#1a1b1c"/><path d="M1148.09812,145.23176c-4.19583-8.77644-13.09638-19.86509-22.96115-10.9138.33973,9.04922-2.55032,19.05354,2.56865,27.10143,3.90367,5.70441,6.21,14.44608,13.14818,16.82549,7.56265,2.43568,15.45848-3.96716,15.35-11.67105a27.99746,27.99746,0,0,0-2.93266-11.35467C1153.55319,151.08366,1150.87426,147.93148,1148.09812,145.23176Z" style="fill:#1a1b1c"/><path d="M1203.78731,160.79416c6.19364-5.03945,8.73144-13.15254,12.18185-20.10632,3.68269-6.38857,2.54191-15.6602-5.12387-18.20046-14.58027-3.50518-19.62043,15.64248-24.42665,25.81057C1182.64013,158.281,1195.51546,168.09175,1203.78731,160.79416Z" style="fill:#1a1b1c"/><path d="M848.69034,100.25743c19.96345,20.79748,39.82253-56.485,16.23067-54.72382-6.81218.6518-8.30909,7.7706-7.191,13.44836C852.88273,66.73552,842.47573,92.67789,848.69034,100.25743Z" style="fill:#1a1b1c"/><path d="M894.282,195.93872c-5.57555-6.61568-14.11306-3.25795-18.58366,2.58877-6.46018,7.46822-15.09136,16.58548-14.17533,27.12113,5.32967,15.49151,20.03163,8.51649,26.28533-2.44658C892.21865,215.323,901.114,204.75179,894.282,195.93872Z" style="fill:#1a1b1c"/><path d="M850.74177,154.02626c-1.13815-6.662-8.89165-10.45117-14.91135-7.49732-6.70751,4.68743-11.35342,12.25283-15.48039,19.23579-3.07857,6.81492-9.00558,13.55566-8.14495,21.387,1.22123,6.92051,9.15647,10.432,15.38521,7.42067,6.31637-3.53884,9.57663-10.794,13.90625-16.37659C846.85578,170.92054,852.25858,163.451,850.74177,154.02626Z" style="fill:#1a1b1c"/><path d="M555.429,108.88925c-42.74527-39.32566-109.42788,27.357-109.42788,27.357s-41.03542,18.80786,17.09808,88.90993c58.1335,70.10233,111.13766,20.51778,121.39655-1.70968C594.75441,201.219,598.174,148.21489,555.429,108.88925Zm-41.03556,95.74942s-41.03537,0-34.19609-44.45518c0,0,30.77647-42.74509,54.71387-6.83906C558.8484,189.25024,514.39341,204.63867,514.39341,204.63867Z" style="fill:#1a1b1c"/><path d="M285.29729,112.92052c-22.97788-21.13966-58.82336,14.70588-58.82336,14.70588s-22.05874,10.11024,9.19114,47.79387,59.74246,11.02941,65.25716-.919S308.27506,134.06017,285.29729,112.92052ZM263.23848,164.391s-22.05872,0-18.38224-23.89705c0,0,16.544-22.97778,29.41165-3.67636S263.23848,164.391,263.23848,164.391Z" style="fill:#1a1b1c"/><path d="M373.24329,196.95781c-22.97788-21.13966-58.82337,14.70587-58.82337,14.70587s-22.05874,10.11024,9.19114,47.79387,59.74246,11.02941,65.25717-.91905S396.22106,218.09745,373.24329,196.95781Zm-22.05882,51.47046s-22.05872,0-18.38224-23.89705c0,0,16.544-22.97779,29.41165-3.67636S351.18447,248.42827,351.18447,248.42827Z" style="fill:#1a1b1c"/><path d="M241.05206,250.9491c-.219-9.51811-.13311-19.28989-4.64007-27.78124-14.05947-28.32894-31.57122-46.38975-31.993-78.837-23.75765-.28773-46.86453.22965-70.57373.584-2.67574-.08389-28.89375-1.31428-26.65453-4.2159,3.86072-.92147,7.92249-.8811,11.8833-1.63808,10.28883-1.73694,20.43914-4.47821,30.83786-5.63206,17.83677-1.867,35.4209-2.0354,53.46254-3.81661q-.40707-5.95168-.83929-11.9093H18.91028C12.93911,122.501,6.4294,127.8049.49347,132.79327.43677,153.5025.35278,179.54376.23773,208.60059c18.73617-10.60172,36.93562-21.52082,54.57579-33.97439,3.38569-2.25557,3.07642.65633,1.1009,2.6724a192.34234,192.34234,0,0,1-14.79408,16.2098C26.27371,208.092,13.06553,223.97741.10461,240.29193Q.05508,251.436,0,262.925c8.70985,10.64848,21.3079,16.46109,33.95081,21.01367,17.96011-11.43539,36.97132-21.348,55.16292-32.60193,9.29777-5.81624,17.853-12.44429,26.89443-18.74252,9.03766-6.04792-7.27364,12.97282-8.0694,14.25835-14.80728,17.5612-32.04988,32.97169-48.11088,49.35789,9.77308,6.52158,17.93979,15.623,27.81431,21.96538a130.57826,130.57826,0,0,0,36.53527,16.90093c7.68,2.02951,15.85654,2.40083,23.46,4.43793a73.07315,73.07315,0,0,1,27.04413,14.86714c10.14537,9.24581,24.92555,26.71275,38.16881,12.06837,9.34659-12.55219,14.63984-40.89639,15.13319-53.9466.70317-.76851,3.25764-3.23612,3.90241-3.92915A163.03225,163.03225,0,0,0,241.05206,250.9491Z" style="fill:#1a1b1c"/></g></g></svg>